<svg width="25" height="25" viewBox="0 0 25 25" fill="none" xmlns="http://www.w3.org/2000/svg">
<path d="M14.7681 2.94006H6.76807C6.23763 2.94006 5.72893 3.15078 5.35385 3.52585C4.97878 3.90092 4.76807 4.40963 4.76807 4.94006V20.9401C4.76807 21.4705 4.97878 21.9792 5.35385 22.3543C5.72893 22.7293 6.23763 22.9401 6.76807 22.9401H18.7681C19.2985 22.9401 19.8072 22.7293 20.1823 22.3543C20.5574 21.9792 20.7681 21.4705 20.7681 20.9401V8.94006L14.7681 2.94006Z" stroke="black" stroke-width="2" stroke-linecap="round" stroke-linejoin="round"/>
<path d="M14.7681 2.94006V8.94006H20.7681" stroke="black" stroke-width="2" stroke-linecap="round" stroke-linejoin="round"/>
<path d="M16.7681 13.9401H8.76807" stroke="black" stroke-width="2" stroke-linecap="round" stroke-linejoin="round"/>
<path d="M16.7681 17.9401H8.76807" stroke="black" stroke-width="2" stroke-linecap="round" stroke-linejoin="round"/>
<path d="M10.7681 9.94006H9.76807H8.76807" stroke="black" stroke-width="2" stroke-linecap="round" stroke-linejoin="round"/>
</svg>
