<svg width="38" height="38" viewBox="0 0 38 38" fill="none" xmlns="http://www.w3.org/2000/svg">
<path d="M9.5 14.2501V3.16675H28.5V14.2501" stroke="black" stroke-width="2" stroke-linecap="round" stroke-linejoin="round"/>
<path d="M9.49984 28.5H6.33317C5.49332 28.5 4.68786 28.1664 4.094 27.5725C3.50013 26.9786 3.1665 26.1732 3.1665 25.3333V17.4167C3.1665 16.5768 3.50013 15.7714 4.094 15.1775C4.68786 14.5836 5.49332 14.25 6.33317 14.25H31.6665C32.5064 14.25 33.3118 14.5836 33.9057 15.1775C34.4995 15.7714 34.8332 16.5768 34.8332 17.4167V25.3333C34.8332 26.1732 34.4995 26.9786 33.9057 27.5725C33.3118 28.1664 32.5064 28.5 31.6665 28.5H28.4998" stroke="black" stroke-width="2" stroke-linecap="round" stroke-linejoin="round"/>
<path d="M28.5 22.1667H9.5V34.8334H28.5V22.1667Z" stroke="black" stroke-width="2" stroke-linecap="round" stroke-linejoin="round"/>
</svg>
