<svg width="25" height="25" viewBox="0 0 25 25" fill="none" xmlns="http://www.w3.org/2000/svg">
<path d="M3.76807 6.94006H5.76807H21.7681" stroke="black" stroke-width="2" stroke-linecap="round" stroke-linejoin="round"/>
<path d="M8.76807 6.94006V4.94006C8.76807 4.40963 8.97878 3.90092 9.35385 3.52585C9.72893 3.15078 10.2376 2.94006 10.7681 2.94006H14.7681C15.2985 2.94006 15.8072 3.15078 16.1823 3.52585C16.5574 3.90092 16.7681 4.40963 16.7681 4.94006V6.94006M19.7681 6.94006V20.9401C19.7681 21.4705 19.5574 21.9792 19.1823 22.3543C18.8072 22.7293 18.2985 22.9401 17.7681 22.9401H7.76807C7.23763 22.9401 6.72893 22.7293 6.35385 22.3543C5.97878 21.9792 5.76807 21.4705 5.76807 20.9401V6.94006H19.7681Z" stroke="black" stroke-width="2" stroke-linecap="round" stroke-linejoin="round"/>
<path d="M10.7681 11.9401V17.9401" stroke="black" stroke-width="2" stroke-linecap="round" stroke-linejoin="round"/>
<path d="M14.7681 11.9401V17.9401" stroke="black" stroke-width="2" stroke-linecap="round" stroke-linejoin="round"/>
</svg>
